<mxfile host="app.diagrams.net" modified="2021-09-15T08:15:56.984Z" agent="5.0 (Windows NT 10.0; Win64; x64) AppleWebKit/537.36 (KHTML, like Gecko) Chrome/93.0.4577.63 Safari/537.36" etag="NTpNKOMDM_6AdMsl8wmZ" version="15.2.7" type="github">
  <diagram id="ubj5kL2r5rRX_sxs1-jX" name="Page-1">
    <mxGraphModel dx="1422" dy="794" grid="1" gridSize="10" guides="1" tooltips="1" connect="1" arrows="1" fold="1" page="1" pageScale="1" pageWidth="827" pageHeight="1169" math="0" shadow="0">
      <root>
        <mxCell id="0" />
        <mxCell id="1" parent="0" />
        <mxCell id="CR0ah9bztvhGC5T3OoMS-6" value="" style="edgeStyle=orthogonalEdgeStyle;rounded=0;orthogonalLoop=1;jettySize=auto;html=1;" edge="1" parent="1" source="CR0ah9bztvhGC5T3OoMS-1" target="CR0ah9bztvhGC5T3OoMS-5">
          <mxGeometry relative="1" as="geometry" />
        </mxCell>
        <mxCell id="CR0ah9bztvhGC5T3OoMS-1" value="Bắt đầu" style="ellipse;whiteSpace=wrap;html=1;" vertex="1" parent="1">
          <mxGeometry x="215" y="30" width="120" height="80" as="geometry" />
        </mxCell>
        <mxCell id="CR0ah9bztvhGC5T3OoMS-8" value="" style="edgeStyle=orthogonalEdgeStyle;rounded=0;orthogonalLoop=1;jettySize=auto;html=1;" edge="1" parent="1" source="CR0ah9bztvhGC5T3OoMS-5" target="CR0ah9bztvhGC5T3OoMS-7">
          <mxGeometry relative="1" as="geometry" />
        </mxCell>
        <mxCell id="CR0ah9bztvhGC5T3OoMS-5" value="Nhập a, b" style="shape=parallelogram;perimeter=parallelogramPerimeter;whiteSpace=wrap;html=1;fixedSize=1;" vertex="1" parent="1">
          <mxGeometry x="215" y="150" width="120" height="60" as="geometry" />
        </mxCell>
        <mxCell id="CR0ah9bztvhGC5T3OoMS-10" value="" style="edgeStyle=orthogonalEdgeStyle;rounded=0;orthogonalLoop=1;jettySize=auto;html=1;" edge="1" parent="1" source="CR0ah9bztvhGC5T3OoMS-7" target="CR0ah9bztvhGC5T3OoMS-9">
          <mxGeometry relative="1" as="geometry" />
        </mxCell>
        <mxCell id="CR0ah9bztvhGC5T3OoMS-29" value="" style="edgeStyle=orthogonalEdgeStyle;rounded=0;orthogonalLoop=1;jettySize=auto;html=1;" edge="1" parent="1" source="CR0ah9bztvhGC5T3OoMS-7" target="CR0ah9bztvhGC5T3OoMS-28">
          <mxGeometry relative="1" as="geometry" />
        </mxCell>
        <mxCell id="CR0ah9bztvhGC5T3OoMS-7" value="a == 0" style="rhombus;whiteSpace=wrap;html=1;" vertex="1" parent="1">
          <mxGeometry x="235" y="260" width="80" height="80" as="geometry" />
        </mxCell>
        <mxCell id="CR0ah9bztvhGC5T3OoMS-14" value="" style="edgeStyle=orthogonalEdgeStyle;rounded=0;orthogonalLoop=1;jettySize=auto;html=1;" edge="1" parent="1" source="CR0ah9bztvhGC5T3OoMS-9" target="CR0ah9bztvhGC5T3OoMS-13">
          <mxGeometry relative="1" as="geometry" />
        </mxCell>
        <mxCell id="CR0ah9bztvhGC5T3OoMS-17" value="" style="edgeStyle=orthogonalEdgeStyle;rounded=0;orthogonalLoop=1;jettySize=auto;html=1;" edge="1" parent="1" source="CR0ah9bztvhGC5T3OoMS-9" target="CR0ah9bztvhGC5T3OoMS-16">
          <mxGeometry relative="1" as="geometry" />
        </mxCell>
        <mxCell id="CR0ah9bztvhGC5T3OoMS-9" value="b==0" style="rhombus;whiteSpace=wrap;html=1;" vertex="1" parent="1">
          <mxGeometry x="395" y="260" width="80" height="80" as="geometry" />
        </mxCell>
        <mxCell id="CR0ah9bztvhGC5T3OoMS-13" value="Phương trình có vô số nghiệm" style="shape=parallelogram;perimeter=parallelogramPerimeter;whiteSpace=wrap;html=1;fixedSize=1;" vertex="1" parent="1">
          <mxGeometry x="545" y="255" width="160" height="90" as="geometry" />
        </mxCell>
        <mxCell id="CR0ah9bztvhGC5T3OoMS-15" value="True" style="text;html=1;align=center;verticalAlign=middle;resizable=0;points=[];autosize=1;strokeColor=none;fillColor=none;" vertex="1" parent="1">
          <mxGeometry x="495" y="270" width="40" height="20" as="geometry" />
        </mxCell>
        <mxCell id="CR0ah9bztvhGC5T3OoMS-16" value="Phương trình vô nghiệm" style="shape=parallelogram;perimeter=parallelogramPerimeter;whiteSpace=wrap;html=1;fixedSize=1;" vertex="1" parent="1">
          <mxGeometry x="455" y="430" width="130" height="80" as="geometry" />
        </mxCell>
        <mxCell id="CR0ah9bztvhGC5T3OoMS-18" value="False" style="text;html=1;align=center;verticalAlign=middle;resizable=0;points=[];autosize=1;strokeColor=none;fillColor=none;" vertex="1" parent="1">
          <mxGeometry x="455" y="360" width="40" height="20" as="geometry" />
        </mxCell>
        <mxCell id="CR0ah9bztvhGC5T3OoMS-19" value="True" style="text;html=1;align=center;verticalAlign=middle;resizable=0;points=[];autosize=1;strokeColor=none;fillColor=none;" vertex="1" parent="1">
          <mxGeometry x="325" y="270" width="40" height="20" as="geometry" />
        </mxCell>
        <mxCell id="CR0ah9bztvhGC5T3OoMS-22" value="False" style="text;html=1;align=center;verticalAlign=middle;resizable=0;points=[];autosize=1;strokeColor=none;fillColor=none;" vertex="1" parent="1">
          <mxGeometry x="285" y="350" width="40" height="20" as="geometry" />
        </mxCell>
        <mxCell id="CR0ah9bztvhGC5T3OoMS-31" value="" style="edgeStyle=orthogonalEdgeStyle;rounded=0;orthogonalLoop=1;jettySize=auto;html=1;" edge="1" parent="1" source="CR0ah9bztvhGC5T3OoMS-28" target="CR0ah9bztvhGC5T3OoMS-30">
          <mxGeometry relative="1" as="geometry" />
        </mxCell>
        <mxCell id="CR0ah9bztvhGC5T3OoMS-28" value="&lt;span&gt;Phương trình có một nghiệm là x = - b / a&lt;/span&gt;" style="shape=parallelogram;perimeter=parallelogramPerimeter;whiteSpace=wrap;html=1;fixedSize=1;" vertex="1" parent="1">
          <mxGeometry x="200" y="430" width="150" height="100" as="geometry" />
        </mxCell>
        <mxCell id="CR0ah9bztvhGC5T3OoMS-30" value="Kết thúc" style="ellipse;whiteSpace=wrap;html=1;" vertex="1" parent="1">
          <mxGeometry x="215" y="630" width="120" height="60" as="geometry" />
        </mxCell>
        <mxCell id="CR0ah9bztvhGC5T3OoMS-37" value="" style="endArrow=classic;html=1;exitX=0.5;exitY=1;exitDx=0;exitDy=0;entryX=1;entryY=0.5;entryDx=0;entryDy=0;" edge="1" parent="1" source="CR0ah9bztvhGC5T3OoMS-16" target="CR0ah9bztvhGC5T3OoMS-30">
          <mxGeometry width="50" height="50" relative="1" as="geometry">
            <mxPoint x="440" y="660" as="sourcePoint" />
            <mxPoint x="380" y="570" as="targetPoint" />
          </mxGeometry>
        </mxCell>
        <mxCell id="CR0ah9bztvhGC5T3OoMS-38" value="" style="endArrow=classic;html=1;entryX=0.5;entryY=1;entryDx=0;entryDy=0;exitX=0.5;exitY=1;exitDx=0;exitDy=0;" edge="1" parent="1" source="CR0ah9bztvhGC5T3OoMS-13" target="CR0ah9bztvhGC5T3OoMS-30">
          <mxGeometry width="50" height="50" relative="1" as="geometry">
            <mxPoint x="630" y="690" as="sourcePoint" />
            <mxPoint x="440" y="370" as="targetPoint" />
            <Array as="points">
              <mxPoint x="625" y="690" />
            </Array>
          </mxGeometry>
        </mxCell>
      </root>
    </mxGraphModel>
  </diagram>
</mxfile>
